<?xml version="1.0" encoding="UTF-8"?>
<svg width="120px" height="35px" viewBox="0 0 120 35" version="1.1" xmlns="http://www.w3.org/2000/svg" xmlns:xlink="http://www.w3.org/1999/xlink">
    <!-- Generator: Sketch 41.2 (35397) - http://www.bohemiancoding.com/sketch -->
    <title>Combined Shape Copy</title>
    <desc>Created with Sketch.</desc>
    <defs></defs>
    <g id="Page-1" stroke="none" stroke-width="1" fill="none" fill-rule="evenodd">
        <g id="Landing-Page" transform="translate(-70.000000, -49.000000)" fill="#FFFFFF">
            <g id="Group-2" transform="translate(70.000000, 49.000000)">
                <g id="Group">
                    <g id="Combined-Shape-Copy">
                        <path d="M7.19554122,13.2677075 L12.9597013,13.267708 L12.9597013,10.0498482 L7.19554122,10.0498482 L7.19554122,6.742166 C7.19554122,4.63211067 8.1371351,3.8115336 9.78492438,3.8115336 C10.9619167,3.8115336 11.8250444,4.16320949 12.7666383,4.78841107 L12.7666383,1.23257708 C11.7858114,0.6464506 10.7265183,0.372924909 9.35336052,0.372924909 C5.70468425,0.372924909 3.35069956,2.48298024 3.35069956,6.7812411 L3.35069956,10.0498482 L0.643617159,10.0498482 L0.643617159,13.2677075 L3.35069956,13.2677075 L3.35069956,27.6442542 L7.19554122,27.6442542 L7.19554122,13.2677075 Z M29.5100124,10.0498482 L25.6651708,10.0498482 L25.6651708,24.3122592 C24.6451107,24.4685596 23.5465845,24.5467098 22.6834568,24.5467098 C20.1333067,24.5467098 18.5639836,23.6089075 18.5639836,21.0299509 L18.5639836,10.0498482 L14.7191419,10.0498482 L14.7191419,21.3034766 C14.7191419,26.1487889 17.779322,27.7508679 22.761923,27.7508679 C24.802043,27.7508679 27.4698924,27.4773422 29.5100124,26.9693659 L29.5100124,10.0498482 Z M36.7121494,0.372924909 L33.1932682,0.372924909 L33.1932682,27.6442542 L36.7121494,27.6442542 L36.7121494,0.372924909 Z M43.7499118,0.372924909 L40.2310306,0.372924909 L40.2310306,27.6442542 L43.7499118,27.6442542 L43.7499118,0.372924909 Z M47.1418446,26.3187905 C48.4365362,27.1784426 50.4766563,27.725494 52.5167763,27.725494 C56.2831518,27.725494 59.0687004,26.0843399 59.0687004,22.4503557 C59.0687004,19.3243478 57.3424449,17.839494 53.379904,16.9798419 C51.379017,16.4327905 50.6335886,15.846664 50.6335886,14.7134861 C50.6335886,13.5803083 51.5359494,12.7597312 53.2229717,12.7597312 C55.0669264,12.7597312 56.5577834,13.4240079 58.0878734,14.5181107 L58.0878734,10.9622767 C56.6362495,10.0635494 55.0669264,9.63372331 53.1052725,9.63372331 C49.5742955,9.63372331 46.9064461,11.3530277 46.9064461,14.8697865 C46.9064461,17.8785691 48.4365362,19.3243478 52.0459794,20.1449249 C54.2822648,20.7310514 55.3023249,21.2390276 55.3023249,22.6457312 C55.3023249,24.0133596 54.1645656,24.5994861 52.4383102,24.5994861 C50.6728216,24.5994861 48.7504008,23.8570592 47.1418446,22.6457312 L47.1418446,26.3187905 Z M59.5579878,13.2677075 L61.9065597,13.2677075 L61.9065597,22.3722055 C61.9065597,26.3187905 64.2997775,27.725494 67.1245591,27.725494 C68.7723484,27.725494 70.1847392,27.3738181 71.3224985,26.7876917 L71.3224985,23.3100079 C70.2632054,23.9352094 69.2823784,24.2868853 68.1446191,24.2868853 C66.6537622,24.2868853 65.7514014,23.5835336 65.7514014,21.5125533 L65.7514014,13.2677075 L70.6947692,13.2677075 L70.6947692,10.0498482 L65.7514014,10.0498482 L65.7656869,5.65023086 L61.9208453,5.65023086 L61.9065597,10.0498482 L59.5579878,10.0498482 L59.5579878,13.2677075 Z M80.9084472,27.725494 C86.1264466,27.725494 89.8928222,24.0524347 89.8928222,18.6991462 C89.8928222,13.3067826 86.1264466,9.63372331 80.9084472,9.63372331 C75.7296809,9.63372331 71.9633054,13.3067826 71.9633054,18.6991462 C71.9633054,24.0524347 75.7296809,27.725494 80.9084472,27.725494 Z M85.9695143,18.6991462 C85.9695143,22.17683 83.8901612,24.4041106 80.9084472,24.4041106 C78.0051995,24.4041106 75.8866132,22.17683 75.8866132,18.6991462 C75.8866132,15.1823873 78.0051995,12.9551067 80.9084472,12.9551067 C83.8901612,12.9551067 85.9695143,15.1823873 85.9695143,18.6991462 Z M96.1831924,13.9319842 C96.9678539,13.6193834 97.9094478,13.3849328 99.0864401,13.3849328 C99.7146764,13.3849328 100.932682,13.5639687 100.932682,13.5639687 L99.5218517,9.76027867 C99.5218517,9.76027867 99.2811086,9.75094861 99.0864401,9.75094861 C96.6147562,9.75094861 94.1823054,10.4152253 92.2991176,11.470253 L92.2991176,27.6442542 L96.1831924,27.6442542 L96.1831924,13.9319842 Z M105.808374,10.0498482 L101.649668,10.0498482 L108.829321,28.116245 L106.39687,34.6820166 L110.202479,34.6820166 L119.618418,10.0498482 L115.616644,10.0498482 L110.751742,23.6616838 L105.808374,10.0498482 Z"></path>
                    </g>
                </g>
            </g>
        </g>
    </g>
</svg>